<?xml version="1.0" encoding="utf-8"?>
<!-- Generator: Adobe Illustrator 24.2.1, SVG Export Plug-In . SVG Version: 6.00 Build 0)  -->
<svg version="1.1"
	 xmlns:cc="http://creativecommons.org/ns#" xmlns:dc="http://purl.org/dc/elements/1.1/" xmlns:rdf="http://www.w3.org/1999/02/22-rdf-syntax-ns#" xmlns:svg="http://www.w3.org/2000/svg"
	 xmlns="http://www.w3.org/2000/svg" xmlns:xlink="http://www.w3.org/1999/xlink" x="0px" y="0px" viewBox="0 0 1024 1025"
	 style="enable-background:new 0 0 1024 1025;" xml:space="preserve">
<style type="text/css">
	.st0{fill:#FFFFFF;}
	.st1{fill:#008CCE;}
</style>
<ellipse class="st0" cx="512" cy="512.5" rx="512" ry="512.5"/>
<path class="st1" d="M478.5,1024c-103.7-6.6-205.4-46-286.5-111.1C95.3,835.3,31,728.6,7.7,607.3C1.2,573.4,0,558.9,0,513
	c0-44.7,0.7-54.9,6.4-88.1c28.7-169.4,145-316.6,303.6-384.1C356.5,21,403.3,8.6,455.8,2.3c25.6-3.1,86.1-3.1,112.5,0.1
	c116.9,13.8,222.2,64.4,304.3,146c86,85.6,138,195.4,149.6,316c2.4,25,2.4,71,0,96c-9.7,101.7-48.4,195.9-113.1,275.8
	c-15.8,19.5-57.3,60.6-77.4,76.6c-17.8,14.2-48.5,35.1-66.6,45.4C678.3,1007.4,578.4,1030.4,478.5,1024z M344.4,851.7
	c3.4-1.5,4.7-4.3,16.3-33.8l6.7-17l143.9-0.3l143.9-0.3l9.2,23.6c5.1,13,10.3,24.7,11.6,26.1c2.2,2.4,4.2,2.5,32.7,2.9
	c33.1,0.4,36.3-0.1,38.7-6c1.8-4.3,2.3-3.4-13.8-26.9c-6.9-10.2-12.6-18.7-12.6-19.1c0-0.3,18.2-0.6,40.5-0.6
	c22.7,0,42.5-0.6,45-1.2c2.5-0.7,6.4-3.2,8.7-5.6c3.7-3.8,4.3-5.4,4.8-11.9c0.7-9.4-2.4-15-10.3-18.9c-5.2-2.5-7.3-2.6-61.2-2.6
	l-55.9,0l-13.6-20.1l-13.6-20.1h41c43,0,46.9-0.5,48.9-5.7c1.6-4.2,0.7-9-2.1-11.7c-2.9-2.7-3.6-2.7-52.4-3l-49.5-0.3l-14.2-20.7
	c-7.8-11.4-14.2-21.2-14.2-21.7c0-0.5,27-1,60-1c58.8,0,60.2-0.1,68.3-2.8c28.6-9.7,47.7-35.3,47.7-63.9
	c0-7.9-24.2-342.8-25.8-356.3c-2.5-22.1-17.3-43.1-37.5-53.3c-16-8.1-5.4-7.7-228.8-7.4l-202.7,0.3l-7,2.7c-3.9,1.5-9,3.7-11.3,4.9
	c-16.4,8.3-31,27.1-35.1,45.1c-0.7,3-7.2,86.6-14.5,185.9c-12.8,174.3-13.2,180.9-11.4,189.5c4.8,23.1,20.3,41.9,42.2,51.2l8.2,3.5
	l62.6,0.6l62.6,0.6L385.8,678L371,699.7h-49.4c-47.7,0-49.5,0.1-51.9,2.5c-3.2,3.2-3.3,10.1-0.1,14l2.4,3l42.2,0.4
	c23.2,0.2,42.2,0.6,42.2,0.9c0,0.3-6,9.3-13.3,20.1l-13.3,19.5l-55.6,0c-51.4,0-55.9,0.2-60.7,2.4c-13.8,6.3-14.8,26.3-1.8,34.5
	c4.3,2.7,5.7,2.8,47.5,3.1l43.1,0.4l-13.9,20.4c-8.9,13-13.9,21.5-13.9,23.6c0,3.2,2.6,6.4,6.3,7.8
	C284.8,853.6,341.2,853.2,344.4,851.7L344.4,851.7z M384.6,757.9c0.4-1.2,4-10.3,7.9-20.1l7.1-17.9h111.6
	c61.4,0,111.9,0.5,112.3,1.1c0.4,0.6,4,9.7,8.1,20.1l7.5,19H511.5C390.4,760.1,383.9,760,384.6,757.9L384.6,757.9z M408.1,698.8
	c0.1-0.5,3.9-10.3,8.5-21.7l8.4-20.7l86.3-0.3l86.3-0.3l8.3,20.8c4.6,11.4,8.3,21.3,8.3,22c0,0.8-35.4,1.3-103.1,1.3
	C454.4,699.7,408,699.3,408.1,698.8L408.1,698.8z M332.2,578.5c-6-2.2-9.3-5.2-12.3-11.1c-7.6-14.8,3.5-32.7,20.2-32.6
	c17.3,0.1,27.6,16.9,20,32.6C355.2,577.4,342.7,582.4,332.2,578.5L332.2,578.5z M393.7,578.4c-10.3-3.7-15.4-12.1-14.4-24
	c1-11.9,9.9-19.7,22.4-19.6c9.7,0.1,16.7,4.9,20.6,14.3c3.5,8.4,1.7,17.2-4.9,23.7C410.3,579.8,402.7,581.6,393.7,578.4L393.7,578.4
	z M613.8,578.5c-19.7-7.3-19.5-36.7,0.3-42.9c16.4-5.1,32.6,8.6,29.8,25.4C641.7,574.6,626.7,583.3,613.8,578.5L613.8,578.5z
	 M675.4,578.4c-12.2-4.4-17.8-16.8-13.5-29.8c4.1-12.5,23-18.2,33.9-10.2c14.7,10.9,12.4,31.8-4.2,39.5
	C685.6,580.7,681.9,580.8,675.4,578.4L675.4,578.4z M348.3,452.9c-7.7-3.6-14.6-11-17.7-19c-2.3-5.9-2.2-6.9,2.5-72.8
	c2.6-36.7,5.5-69.6,6.5-73.1c2.2-8.2,9.3-16.5,17.4-20.2l6.4-3l147.1,0c165.6,0,154.4-0.7,164.7,9.6c3.8,3.8,6.2,7.7,7.6,12.2
	c2.6,8.6,12.2,136.7,10.8,143.2c-2.5,11.3-12.3,22-22.4,24.9c-3.1,0.9-57,1.3-160.6,1.3l-155.9,0L348.3,452.9L348.3,452.9z
	 M502.3,360.3v-56.6h-62.8h-62.8l-0.7,6.6c-0.4,3.6-2.1,26.1-3.8,50c-1.7,23.9-3.5,46.3-3.9,50l-0.7,6.6h67.4h67.4V360.3z
	 M654.4,412.7c0-2.2-1.7-26.2-3.8-53.1c-2.1-27-3.7-50.6-3.8-52.5l0-3.5H584h-62.9v56.6v56.6h66.6h66.6L654.4,412.7L654.4,412.7z"/>
</svg>
