<?xml version="1.0" encoding="utf-8"?>
<!-- Generator: Adobe Illustrator 24.2.1, SVG Export Plug-In . SVG Version: 6.00 Build 0)  -->
<svg version="1.1"
	 xmlns:cc="http://creativecommons.org/ns#" xmlns:dc="http://purl.org/dc/elements/1.1/" xmlns:rdf="http://www.w3.org/1999/02/22-rdf-syntax-ns#" xmlns:svg="http://www.w3.org/2000/svg"
	 xmlns="http://www.w3.org/2000/svg" xmlns:xlink="http://www.w3.org/1999/xlink" x="0px" y="0px" viewBox="0 0 768.2 768"
	 style="enable-background:new 0 0 768.2 768;" xml:space="preserve">
<style type="text/css">
	.st0{fill:#FFFFFF;}
	.st1{fill:#71BE46;}
</style>
<ellipse class="st0" cx="384.1" cy="384" rx="384.1" ry="384"/>
<path class="st1" d="M359.9,767.5c-65-4.8-122.5-23-176.2-55.9c-26.7-16.4-46.5-32.1-70.8-56.4s-40.1-44.1-56.4-70.8
	C3,496.9-13.3,392.4,11.1,292.6c24.7-101.2,91.3-189.5,182-241.7c132.8-76.4,299.2-66.2,421.4,25.9c28.1,21.1,55.7,48.8,76.9,76.9
	c83.7,111.1,100.3,259,43.6,386.8c-12.9,29.2-30.1,57.3-51.4,84c-12.1,15.2-42.9,46.1-57.9,58.1c-60.1,47.9-127.3,75.7-202.4,83.6
	C407.1,767.9,374.3,768.6,359.9,767.5L359.9,767.5z M261.4,662c0.7-0.6,7.8-7.7,15.7-15.8l14.4-14.7l0.4-13.2l0.4-13.2l91.2-0.2
	c72.4-0.2,91.4,0,92,0.9c0.4,0.6,0.7,6.5,0.7,13.1l0,12l12.7,13.2c17.5,18.1,18.5,19,22,19c4.2,0,7.1-2.6,7.1-6.5
	c0-2.8-1.1-4.4-9.1-12.9c-5-5.4-11.2-11.8-13.7-14.2l-4.6-4.5v-10.2v-10.2l23.6,0c17.3,0,25.3-0.4,29.9-1.3
	c15.2-3.2,27.9-13,34.6-26.8c6.6-13.6,6.8,2.3-2.5-200.5c-6.1-131.6-8.7-183.1-9.7-186.8c-4.3-16.8-17-30-34.5-35.8
	c-4.6-1.5-10.3-1.7-72.4-2.1l-67.5-0.5l-0.2-17.4c-0.2-12.1,0.1-17.8,0.8-18.7c0.9-1,10.2-1.2,54.7-1.2c36.5,0,54.8,0.3,57.2,1
	c5,1.4,10.8,7.4,12.1,12.5c1.8,7,6.6,9.9,11.6,7.2c8.8-4.7-1.5-26-15.9-32.7l-4.3-2H384.2H260.1l-5.1,2.5c-16.3,8-24.8,33-11.3,33
	c3.9,0,6.4-2.5,7.7-7.6c0.6-2.4,2.4-5.6,4.2-7.7c5.9-6.6,4-6.4,66-6.1l55.3,0.2v18.4V151l-67.9,0.5c-62.6,0.4-68.3,0.6-72.9,2.1
	c-13.8,4.6-25.1,14-30.7,25.8c-1.8,3.7-3.7,8.6-4.2,10.9c-1,4-17.2,347.1-17.2,363.1c0,18.1,8.3,33.4,23.5,43.2
	c10.7,6.9,13.9,7.5,43.8,7.9l26.3,0.3v9.9v9.9l-13.5,13.9c-12.7,13.1-13.5,14.1-13.5,17.4c0,4.4,2.5,7.1,6.5,7.1
	C258.8,663.1,260.7,662.6,261.4,662L261.4,662z M249.1,545.3c-10-5-10.1-19.2-0.2-24.3c2.9-1.5,5.9-1.7,36.3-1.7
	c30.3,0,33.4,0.1,35.9,1.6c9.5,5.6,9.1,20.1-0.7,24.5c-3.4,1.5-6.4,1.7-35.6,1.7C254.2,547.2,252.7,547.1,249.1,545.3L249.1,545.3z
	 M447.6,545.1c-5.2-2.7-7.4-6.9-7-12.9c0.4-5.4,2.9-9.4,7.3-11.5c2.7-1.3,7.5-1.5,35.8-1.5c29.3,0,33,0.2,35.8,1.6
	c9.9,5,9.7,20-0.3,24.6c-3.4,1.5-6.4,1.7-35.7,1.7C451.9,547.2,451.5,547.1,447.6,545.1z M271.3,489.2
	c-12.9-3.6-22.5-13.6-25.2-26.4c-0.7-3.3,0.2-30.2,4.1-114c2.7-60.3,5.4-111.5,6-113.7c2.4-9.9,10.9-19.7,20.4-23.5l5.2-2.1h102.5
	h102.5l5.1,2.1c9.2,3.7,17.2,12.6,20.1,22.4c1.8,6.1,11.6,222,10.4,228.4c-2.2,11.2-8.4,19.2-18.8,24.4l-6.9,3.4l-110.7,0.2
	C299.3,490.3,274.5,490.1,271.3,489.2L271.3,489.2z M369.4,460.9c0-1.6-31.2-42.8-32.4-42.8c-0.9,0-1.5,1.7-2,5.8
	c-1.1,9.8-1.6,11.7-3.4,13.5c-4,4-11.7,0.7-11.6-4.9c0-1.5,2.6-24.4,5.7-50.8c5.4-45.7,5.8-48.1,7.8-49.7c3-2.4,7.8-1.8,10.1,1.2
	l1.8,2.4l-3.3,27.8c-1.8,15.3-3.2,28.9-3,30.2c0.2,1.4,10.2,15.8,24.6,35.2l24.3,32.8l54.2,0l54.2,0l1.4-2.1
	c1.2-1.9,0.9-12.5-3.6-110.4L489,240.9l-2.3-2l-2.3-2h-95.7c-70.9,0-96.3,0.3-98,1c-1.5,0.7-2.6,2.2-3.1,4.3
	c-0.5,1.8-3,51.1-5.5,109.6c-4.5,102.6-4.6,106.4-3,108.2c1.6,1.7,2.8,1.8,46,1.8C351.2,461.7,369.4,461.4,369.4,460.9L369.4,460.9z
	"/>
</svg>
